<svg id="Capa_1" xmlns="http://www.w3.org/2000/svg" xmlns:xlink="http://www.w3.org/1999/xlink" width="32" height="32" viewBox="0 0 32 32" style="enable-background:new 0 0 32 32"><g><g id="Bag"><g><path d="M27.996 8.91C27.949 8.395 27.519 8 27 8h-5V6c0-3.309-2.69-6-6-6-3.309.0-6 2.691-6 6v2H5C4.482 8 4.051 8.395 4.004 8.91l-2 22c-.025.279.068.557.258.764C2.451 31.882 2.719 32 3 32h26c.281.0.549-.118.738-.326.188-.207.283-.484.258-.764l-2-22zM12 6c0-2.206 1.795-4 4-4s4 1.794 4 4v2h-8V6zM4.096 30l1.817-20H10v2.277C9.404 12.624 9 13.262 9 14c0 1.104.896 2 2 2s2-.896 2-2c0-.738-.404-1.376-1-1.723V10h8v2.277c-.596.347-1 .984-1 1.723.0 1.104.896 2 2 2 1.104.0 2-.896 2-2 0-.738-.403-1.376-1-1.723V10h4.087l1.817 20H4.096z"/></g></g></g><g/><g/><g/><g/><g/><g/><g/><g/><g/><g/><g/><g/><g/><g/><g/></svg>