<svg 
 xmlns="http://www.w3.org/2000/svg"
 xmlns:xlink="http://www.w3.org/1999/xlink"
 width="15px" height="14px">
<path fill-rule="evenodd"  fill="rgb(0, 0, 0)"
 d="M13.750,7.318 C13.750,7.445 13.625,7.573 13.500,7.573 L4.375,8.845 C4.625,9.291 5.125,9.545 5.625,9.545 L12.750,9.545 C12.937,9.545 13.062,9.673 13.062,9.863 C13.062,10.054 12.937,10.182 12.750,10.182 L5.562,10.182 C4.562,10.182 3.625,9.418 3.437,8.400 L1.937,0.636 L0.312,0.636 C0.125,0.636 -0.000,0.509 -0.000,0.318 C-0.000,0.127 0.125,-0.000 0.312,-0.000 L2.187,-0.000 C2.312,-0.000 2.500,0.127 2.500,0.254 L2.812,1.909 L14.687,1.909 C14.812,1.909 14.875,1.973 14.937,2.036 C15.000,2.100 15.000,2.227 15.000,2.227 L13.750,7.318 ZM2.937,2.482 L4.062,8.209 L13.187,7.000 L14.250,2.482 L2.937,2.482 ZM5.312,10.818 C6.187,10.818 6.875,11.518 6.875,12.409 C6.875,13.300 6.187,14.000 5.312,14.000 C4.437,14.000 3.750,13.300 3.750,12.409 C3.750,11.518 4.437,10.818 5.312,10.818 ZM5.312,13.364 C5.812,13.364 6.250,12.918 6.250,12.409 C6.250,11.900 5.812,11.455 5.312,11.455 C4.812,11.455 4.375,11.900 4.375,12.409 C4.375,12.918 4.812,13.364 5.312,13.364 ZM11.562,10.818 C12.437,10.818 13.125,11.518 13.125,12.409 C13.125,13.300 12.438,14.000 11.562,14.000 C10.687,14.000 10.000,13.300 10.000,12.409 C10.000,11.518 10.687,10.818 11.562,10.818 ZM11.562,13.364 C12.062,13.364 12.500,12.918 12.500,12.409 C12.500,11.900 12.063,11.455 11.562,11.455 C11.062,11.455 10.625,11.900 10.625,12.409 C10.625,12.918 11.062,13.364 11.562,13.364 Z"/>
</svg>